<?xml version="1.0" encoding="UTF-8" standalone="no"?>
<!DOCTYPE svg PUBLIC "-//W3C//DTD SVG 1.1//EN" "http://www.w3.org/Graphics/SVG/1.1/DTD/svg11.dtd">
<svg width="100%" height="100%" viewBox="0 0 3417 1300" version="1.1" xmlns="http://www.w3.org/2000/svg" xmlns:xlink="http://www.w3.org/1999/xlink" xml:space="preserve" xmlns:serif="http://www.serif.com/" style="fill-rule:evenodd;clip-rule:evenodd;stroke-miterlimit:10;">
    <g id="Layer-1-copy-5" serif:id="Layer 1 copy 5" transform="matrix(4.16667,0,0,4.16667,0,0)">
        <g transform="matrix(1,0,0,1,537.19,173.18)">
            <path d="M0,2.89C-1.26,9.06 -2.89,15.16 -4.47,21.26C-6.37,28.6 -8.39,35.9 -10.37,43.22C-10.46,43.57 -10.59,43.92 -10.73,44.25C-13.24,50.09 -15.59,50.91 -21.14,47.52C-21.62,49.27 -22.06,50.9 -22.52,52.53C-24.52,59.65 -26.33,66.84 -28.59,73.88C-32.36,85.65 -39.09,95.57 -48.33,103.76C-59.3,113.48 -70.45,123.1 -83.72,129.54C-101.1,137.96 -118.58,138.68 -135.43,127.82C-143.66,122.52 -151.71,116.95 -159.84,111.5C-170.82,104.13 -179.54,94.71 -185.98,83.12C-190.61,74.79 -192.29,65.63 -194.11,56.48C-194.62,53.93 -195.18,51.39 -195.72,48.81C-202.05,50.82 -203.93,49.93 -206.34,43.99C-207.06,42.21 -207.48,40.33 -208.03,38.49C-211.5,26.85 -215.09,15.24 -218.35,3.54C-219.27,0.26 -219.62,-3.31 -219.52,-6.72C-219.36,-11.59 -216.11,-13.36 -211.77,-11.19C-209.64,-10.12 -207.76,-8.56 -205.21,-6.87C-205.72,-9.64 -206.09,-11.76 -206.51,-13.87C-210.39,-33.73 -209.9,-53.31 -203.09,-72.58C-197.77,-87.65 -188.67,-99.86 -175.73,-109.1C-159.19,-120.91 -140.76,-128.11 -120.51,-130.3C-102.78,-132.22 -85.54,-129.95 -68.7,-123.95C-55.81,-119.35 -44.58,-112.21 -34.52,-103.07C-21.99,-91.68 -14.74,-77.35 -11.62,-60.9C-8.84,-46.22 -8.78,-31.44 -10.81,-16.65C-11.05,-14.94 -11.27,-13.22 -11.48,-11.51C-11.49,-11.44 -11.38,-11.36 -11.04,-10.88C-10.15,-11.66 -9.37,-12.39 -8.54,-13.05C-6.69,-14.53 -4.62,-15.03 -2.38,-14.1C-0.04,-13.13 1.39,-11.27 1.26,-8.78C1.06,-4.88 0.78,-0.93 0,2.89M-7.88,-15.62C-8.03,-15.57 -8.22,-15.69 -8.61,-15.79C-8.68,-16.19 -8.79,-16.47 -8.75,-16.71C-6.73,-28.34 -6.74,-40 -7.9,-51.7C-10.26,-75.55 -20.41,-95.27 -39.12,-110.35C-56.53,-124.39 -76.67,-131.5 -98.81,-133.49C-124.41,-135.79 -147.67,-128.62 -169.56,-116.09C-181.36,-109.32 -190.96,-99.96 -197.84,-88.29C-211.34,-65.4 -214.3,-40.76 -208.66,-14.94C-208.45,-14 -208.34,-13.04 -208.12,-11.67C-209.14,-12.16 -209.72,-12.38 -210.25,-12.69C-215.34,-15.65 -219.86,-13.82 -220.99,-8.05C-221.47,-5.59 -221.61,-2.85 -221.05,-0.44C-219.76,5.24 -217.96,10.81 -216.35,16.42C-215.29,20.1 -214.25,23.79 -213.13,27.46C-212.4,29.89 -211.54,32.3 -210.75,34.72C-209.4,38.88 -208.34,43.16 -206.64,47.18C-205.12,50.77 -202.49,51.7 -198.6,51.23C-197.99,51.16 -196.86,52.01 -196.67,52.64C-195.99,54.91 -195.59,57.26 -195.11,59.59C-193.05,69.55 -190.92,79.45 -185.13,88.14C-180.55,95.01 -175.66,101.75 -169.1,106.66C-158.52,114.59 -147.4,121.81 -136.43,129.21C-130.21,133.41 -123.47,136.49 -115.84,136.81C-111.2,137.01 -106.54,136.73 -101.89,136.72C-96,136.7 -90.44,135.25 -85.26,132.59C-69.15,124.3 -54.84,113.5 -42.3,100.48C-38.41,96.45 -35.08,91.71 -32.26,86.85C-26.64,77.2 -23.5,66.57 -21.43,55.63C-21.11,53.98 -20.66,52.35 -20.28,50.73C-14.53,51.96 -12.46,51.11 -9.96,46.12C-8.74,43.69 -7.91,41.02 -7.23,38.38C-5.1,30.09 -3.07,21.76 -1.09,13.43C0.39,7.21 2.05,1.02 3.07,-5.28C4.57,-14.56 -1.4,-17.58 -7.88,-15.62" style="fill-rule:nonzero;"/>
        </g>
        <g transform="matrix(1,0,0,1,528.01,172.18)">
            <path d="M0,8.46C-1.25,11.63 -2.18,14.78 -0.8,18.27C-0.39,19.32 -0.84,21.03 -1.47,22.1C-3.12,24.91 -5.08,27.53 -6.92,30.23C-7.14,30.2 -7.35,30.17 -7.57,30.14C-7.12,28.84 -6.83,27.47 -6.21,26.26C-4.61,23.18 -4.43,20.04 -5.24,16.71C-5.5,15.63 -5.59,14.2 -5.09,13.31C-2.42,8.56 0.46,3.94 3.7,-0.5C2.46,2.49 1.19,5.46 0,8.46M-197.99,16.6C-198.53,11.1 -200.72,5.76 -202.22,0.26C-201.84,0.7 -201.22,1.22 -200.85,1.88C-198.55,5.99 -196.31,10.14 -194.07,14.29C-193.87,14.67 -193.71,15.2 -193.79,15.6C-194.72,19.88 -194.38,24.04 -192.71,28.14C-195.48,24.7 -197.52,21.3 -197.99,16.6M6.8,-13.1C4.56,-14.03 2.49,-13.53 0.64,-12.05C-0.19,-11.39 -0.97,-10.66 -1.86,-9.88C-2.2,-10.36 -2.31,-10.44 -2.3,-10.51C-2.09,-12.22 -1.87,-13.94 -1.63,-15.65C0.4,-30.44 0.34,-45.22 -2.44,-59.9C-5.56,-76.35 -12.81,-90.68 -25.34,-102.07C-35.4,-111.21 -46.63,-118.35 -59.52,-122.95C-76.36,-128.95 -93.6,-131.22 -111.33,-129.3C-131.58,-127.11 -150.01,-119.91 -166.55,-108.1C-179.49,-98.86 -188.59,-86.65 -193.91,-71.58C-200.72,-52.31 -201.21,-32.73 -197.33,-12.87C-196.91,-10.76 -196.54,-8.64 -196.03,-5.87C-198.58,-7.56 -200.46,-9.12 -202.59,-10.19C-206.93,-12.36 -210.18,-10.59 -210.34,-5.72C-210.44,-2.31 -210.09,1.26 -209.17,4.54C-205.91,16.24 -202.32,27.85 -198.85,39.49C-198.3,41.33 -197.88,43.21 -197.16,44.99C-194.75,50.93 -192.87,51.82 -186.54,49.81C-186,52.39 -185.44,54.93 -184.93,57.48C-183.11,66.63 -181.43,75.79 -176.8,84.12C-170.36,95.71 -161.64,105.13 -150.66,112.5C-142.53,117.95 -134.48,123.52 -126.25,128.82C-109.4,139.68 -91.92,138.96 -74.54,130.54C-61.27,124.1 -50.12,114.48 -39.15,104.76C-29.91,96.57 -23.18,86.65 -19.41,74.88C-17.15,67.84 -15.34,60.65 -13.34,53.53C-12.88,51.9 -12.44,50.27 -11.96,48.52C-6.41,51.91 -4.06,51.09 -1.55,45.25C-1.41,44.92 -1.28,44.57 -1.19,44.22C0.79,36.9 2.81,29.6 4.71,22.26C6.29,16.16 7.92,10.06 9.18,3.89C9.96,0.07 10.24,-3.88 10.44,-7.78C10.57,-10.27 9.14,-12.13 6.8,-13.1" style="fill:white;fill-rule:nonzero;"/>
        </g>
        <g transform="matrix(1,0,0,1,528.01,193.45)">
            <path d="M0,-12.81C-1.25,-9.64 -2.18,-6.49 -0.8,-3C-0.39,-1.95 -0.84,-0.24 -1.47,0.83C-3.12,3.64 -5.08,6.26 -6.92,8.96C-7.14,8.93 -7.35,8.9 -7.57,8.87C-7.12,7.57 -6.83,6.2 -6.21,4.99C-4.61,1.91 -4.43,-1.23 -5.24,-4.56C-5.5,-5.64 -5.59,-7.07 -5.09,-7.96C-2.42,-12.71 0.46,-17.33 3.7,-21.77C2.46,-18.78 1.19,-15.81 0,-12.81" style="fill-rule:nonzero;"/>
        </g>
        <g transform="matrix(1,0,0,1,335.3,172.44)">
            <path d="M0,27.88C-2.77,24.44 -4.81,21.04 -5.28,16.34C-5.82,10.84 -8.01,5.5 -9.51,0C-9.13,0.44 -8.51,0.96 -8.14,1.62C-5.84,5.73 -3.6,9.88 -1.36,14.03C-1.16,14.41 -1,14.94 -1.08,15.34C-2.01,19.62 -1.67,23.78 0,27.88" style="fill-rule:nonzero;"/>
        </g>
        <g transform="matrix(0.00295103,-0.999996,-0.999996,-0.00295103,396.135,187.54)">
            <path d="M-42.125,-106.66C-78.353,-104.167 -107.078,-71.871 -107.195,-32.311C-107.312,7.408 -78.548,39.974 -42.125,42.441C-61.28,26.954 -73.998,-0.773 -73.904,-32.383C-73.812,-63.743 -61.121,-91.226 -42.125,-106.66Z" style="fill:white;fill-rule:nonzero;stroke:black;stroke-width:1px;"/>
        </g>
        <g transform="matrix(-0.529551,-0.848278,-0.848278,0.529551,369.059,202.051)">
            <path d="M-94.446,-98.549C-98.351,-92.392 -107.263,-76.528 -107.21,-54.409C-107.158,-32.524 -98.357,-16.83 -94.446,-10.665C-90.58,-4.339 -78.655,13.298 -55.283,22.64C-38.045,29.53 -22.711,28.657 -15.116,27.696" style="fill:none;fill-rule:nonzero;stroke:black;stroke-width:1px;"/>
        </g>
        <g transform="matrix(1,0,0,1,428.3,294.83)">
            <path d="M0,-33.29L-0.18,-18.311L-0.17,0" style="fill:none;fill-rule:nonzero;stroke:black;stroke-width:1px;"/>
        </g>
        <g transform="matrix(1,0,0,1,442.5,294)">
            <path d="M0,-33L0,0" style="fill:none;fill-rule:nonzero;stroke:black;stroke-width:1px;"/>
        </g>
        <g transform="matrix(1,0,0,1,453.5,291)">
            <path d="M0,-33L0,0" style="fill:none;fill-rule:nonzero;stroke:black;stroke-width:1px;"/>
        </g>
        <g transform="matrix(1,0,0,1,465.5,286)">
            <path d="M0,-31L0,0" style="fill:none;fill-rule:nonzero;stroke:black;stroke-width:1px;"/>
        </g>
        <g transform="matrix(1,0,0,1,476.5,250.559)">
            <path d="M0,28.441L0,10.941L0.687,0" style="fill:none;fill-rule:nonzero;stroke:black;stroke-width:1px;"/>
        </g>
        <g transform="matrix(1,0,0,1,483.5,272.006)">
            <path d="M0,-25.006L0,-17.006L-0.042,0" style="fill:none;fill-rule:nonzero;stroke:black;stroke-width:1px;"/>
        </g>
        <g transform="matrix(1,0,0,1,491.5,262.662)">
            <path d="M0,-21.662L0,-15.662L-0.365,0" style="fill:none;fill-rule:nonzero;stroke:black;stroke-width:1px;"/>
        </g>
        <g transform="matrix(1,0,0,1,413.5,293)">
            <path d="M0,-31L0,0" style="fill:none;fill-rule:nonzero;stroke:black;stroke-width:1px;"/>
        </g>
        <g transform="matrix(1,0,0,1,400.5,290)">
            <path d="M0,-32L0,0" style="fill:none;fill-rule:nonzero;stroke:black;stroke-width:1px;"/>
        </g>
        <g transform="matrix(1,0,0,1,388.5,284)">
            <path d="M0,-29L0,0" style="fill:none;fill-rule:nonzero;stroke:black;stroke-width:1px;"/>
        </g>
        <g transform="matrix(1,0,0,1,379.888,277.5)">
            <path d="M0,-27.114L-0.759,-16.565L0,0" style="fill:none;fill-rule:nonzero;stroke:black;stroke-width:1px;"/>
        </g>
        <g transform="matrix(1,0,0,1,372.881,271.999)">
            <path d="M0,-24.936L-0.381,-16.339L-0.381,0" style="fill:none;fill-rule:nonzero;stroke:black;stroke-width:1px;"/>
        </g>
        <g transform="matrix(1,0,0,1,365.5,263)">
            <path d="M0,-22L0,0" style="fill:none;fill-rule:nonzero;stroke:black;stroke-width:1px;"/>
        </g>
    </g>
</svg>
